<svg version="1.2" xmlns="http://www.w3.org/2000/svg" xmlns:xlink="http://www.w3.org/1999/xlink" overflow="visible" preserveAspectRatio="none" viewBox="0 0 19.999999999999968 23.999999999999993" width="19.999999999999968" height="23.999999999999993"><g transform="translate(0, 0)"><g transform="translate(0.000001519491970469744, 0) rotate(0)"><path d="M19.99812,20.75111l-1.43112,-15.42878c-0.03289,-0.33858 -0.32959,-0.59762 -0.68494,-0.59801h-2.94722c0,-2.60917 -2.21039,-4.72432 -4.93704,-4.72432c-2.72665,0 -4.93704,2.11515 -4.93704,4.72432h-2.93597c-0.35604,-0.00131 -0.65375,0.25862 -0.68494,0.59801l-1.43986,15.42878c0,0.01914 0,0.03947 0,0.05861c0.12464,1.86646 1.79813,3.28796 3.74965,3.18503h12.49882c1.95152,0.10293 3.62501,-1.31856 3.74965,-3.18503c0.00251,-0.01946 0.00251,-0.03914 0,-0.05861zM9.99906,1.38979c1.93625,0.0022 3.51582,1.48449 3.55592,3.33692h-7.11183c0.0401,-1.85243 1.61966,-3.33472 3.55592,-3.33692zM16.24847,22.67911h-12.49882c-1.17813,0.09822 -2.2268,-0.71197 -2.37478,-1.83471l1.37487,-14.7901h2.30853v2.00335c-0.02216,0.24841 0.10381,0.48758 0.32565,0.61831c0.22184,0.13073 0.50173,0.13073 0.72357,0c0.22184,-0.13073 0.34781,-0.3699 0.32565,-0.61831v-2.00335h7.11683v2.00335c-0.02216,0.24841 0.10381,0.48758 0.32565,0.61831c0.22184,0.13073 0.50173,0.13073 0.72357,0c0.22184,-0.13073 0.34781,-0.3699 0.32565,-0.61831v-2.00335h2.32353l1.37487,14.78771c-0.14858,1.12273 -1.1964,1.93332 -2.37478,1.8371z" style="stroke-width: 0; stroke-linecap: butt; stroke-linejoin: miter; fill: rgb(169, 103, 30);" vector-effect="non-scaling-stroke"/></g><defs><path id="path-162366560317997284" d="M19.99812,20.75111l-1.43112,-15.42878c-0.03289,-0.33858 -0.32959,-0.59762 -0.68494,-0.59801h-2.94722c0,-2.60917 -2.21039,-4.72432 -4.93704,-4.72432c-2.72665,0 -4.93704,2.11515 -4.93704,4.72432h-2.93597c-0.35604,-0.00131 -0.65375,0.25862 -0.68494,0.59801l-1.43986,15.42878c0,0.01914 0,0.03947 0,0.05861c0.12464,1.86646 1.79813,3.28796 3.74965,3.18503h12.49882c1.95152,0.10293 3.62501,-1.31856 3.74965,-3.18503c0.00251,-0.01946 0.00251,-0.03914 0,-0.05861zM9.99906,1.38979c1.93625,0.0022 3.51582,1.48449 3.55592,3.33692h-7.11183c0.0401,-1.85243 1.61966,-3.33472 3.55592,-3.33692zM16.24847,22.67911h-12.49882c-1.17813,0.09822 -2.2268,-0.71197 -2.37478,-1.83471l1.37487,-14.7901h2.30853v2.00335c-0.02216,0.24841 0.10381,0.48758 0.32565,0.61831c0.22184,0.13073 0.50173,0.13073 0.72357,0c0.22184,-0.13073 0.34781,-0.3699 0.32565,-0.61831v-2.00335h7.11683v2.00335c-0.02216,0.24841 0.10381,0.48758 0.32565,0.61831c0.22184,0.13073 0.50173,0.13073 0.72357,0c0.22184,-0.13073 0.34781,-0.3699 0.32565,-0.61831v-2.00335h2.32353l1.37487,14.78771c-0.14858,1.12273 -1.1964,1.93332 -2.37478,1.8371z" vector-effect="non-scaling-stroke"/></defs></g></svg>