<svg version="1.2" xmlns="http://www.w3.org/2000/svg" xmlns:xlink="http://www.w3.org/1999/xlink" overflow="visible" preserveAspectRatio="none" viewBox="0 0 21.999990525835646 22.00000196996302" width="21.999990525835646" height="22.00000196996302"><g transform="translate(0, 0)"><g transform="translate(-4.440892098500626e-16, 0.0000019699630184127296) rotate(0)"><path d="M21.79137,20.80222l-5.67944,-5.58881c1.54284,-1.66095 2.4007,-3.84374 2.40157,-6.11066c-0.04436,-5.06936 -4.18841,-9.14379 -9.25797,-9.10244c-2.43529,-0.01953 -4.77859,0.92917 -6.51436,2.63737c-1.73576,1.7082 -2.7218,4.03597 -2.74117,6.47118c0.01937,2.43521 1.00541,4.76298 2.74117,6.47118c1.73576,1.7082 4.07906,2.6569 6.51436,2.63737c2.11679,0.00429 4.17181,-0.71303 5.8261,-2.03363l5.70144,5.61081c0.27982,0.27388 0.72725,0.27388 1.00707,0c0.13395,-0.13026 0.20962,-0.30909 0.20985,-0.49593c0.00023,-0.18684 -0.075,-0.36586 -0.20863,-0.49644zM9.25553,16.81562c-4.29068,0.03388 -7.79673,-3.41624 -7.83169,-7.70676c0.03496,-4.29052 3.54101,-7.74065 7.83169,-7.70676c4.29068,-0.03388 7.79673,3.41624 7.83169,7.70676c-0.03496,4.29052 -3.54101,7.74065 -7.83169,7.70676z" style="stroke-width: 0; stroke-linecap: butt; stroke-linejoin: miter; fill: rgb(169, 103, 30);" vector-effect="non-scaling-stroke"/></g><defs><path id="path-162366457953986772" d="M21.79137,20.80222l-5.67944,-5.58881c1.54284,-1.66095 2.4007,-3.84374 2.40157,-6.11066c-0.04436,-5.06936 -4.18841,-9.14379 -9.25797,-9.10244c-2.43529,-0.01953 -4.77859,0.92917 -6.51436,2.63737c-1.73576,1.7082 -2.7218,4.03597 -2.74117,6.47118c0.01937,2.43521 1.00541,4.76298 2.74117,6.47118c1.73576,1.7082 4.07906,2.6569 6.51436,2.63737c2.11679,0.00429 4.17181,-0.71303 5.8261,-2.03363l5.70144,5.61081c0.27982,0.27388 0.72725,0.27388 1.00707,0c0.13395,-0.13026 0.20962,-0.30909 0.20985,-0.49593c0.00023,-0.18684 -0.075,-0.36586 -0.20863,-0.49644zM9.25553,16.81562c-4.29068,0.03388 -7.79673,-3.41624 -7.83169,-7.70676c0.03496,-4.29052 3.54101,-7.74065 7.83169,-7.70676c4.29068,-0.03388 7.79673,3.41624 7.83169,7.70676c-0.03496,4.29052 -3.54101,7.74065 -7.83169,7.70676z" vector-effect="non-scaling-stroke"/></defs></g></svg>