<?xml version="1.0" encoding="utf-8"?>
<!-- Generator: Adobe Illustrator 26.1.0, SVG Export Plug-In . SVG Version: 6.00 Build 0)  -->
<svg version="1.1" id="Layer_1" xmlns="http://www.w3.org/2000/svg" xmlns:xlink="http://www.w3.org/1999/xlink" x="0px" y="0px"
	 viewBox="0 0 177 46" style="enable-background:new 0 0 177 46;" xml:space="preserve">
<style type="text/css">
	.st0{fill:#A86728;}
</style>
<g>
	<g>
		<path class="st0" d="M45.3,34.8c1.13,0,1.46,0.3,0.9,1.26l-2.49,4.23l-2.82-4.34c-0.53-0.81-0.43-1.16,0.94-1.16v-0.34h-4.7v0.34
			c1.15,0.04,1.55,0.27,2.42,1.63l3.14,4.91v2.49c0,0.87-0.31,1.26-1.42,1.26h-0.33v0.34h4.86V45.1h-0.23
			c-1.07,0-1.41-0.38-1.41-1.32v-2.64l2.93-4.96c0.49-0.83,1-1.29,2.21-1.39v-0.34H45.3V34.8z M64.92,34.51
			c1.47,0.06,1.73,0.36,1.73,2.06v4.11c0,3-2.03,3.82-4.02,3.82c-2.62,0-4.03-1.44-4.03-3.81v-4.9c0-1.03,0.43-1.28,1.41-1.28h0.15
			v-0.34h-4.54v0.34c1.2,0.01,1.54,0.19,1.54,1.31v5.16c0,2.52,1.73,4.46,5.09,4.46c3.82,0,5.22-2.37,5.22-4.54v-4.79
			c0-1.11,0.42-1.59,1.6-1.6v-0.34h-4.14V34.51z M30.8,43.99l-3.68-9.8h-1.54l0.16,0.39l-3.22,8.77c-0.55,1.53-0.76,1.73-1.91,1.75
			v0.34h4.09V45.1h-0.29c-0.98,0-1.44-0.17-1.44-0.66c0-0.25,0.23-0.77,0.36-1.11l1.01-2.77h3.67l1.18,3.22
			c0.07,0.17,0.18,0.44,0.18,0.72c0,0.49-0.37,0.6-1.36,0.6h-0.46v0.34h4.84V45.1C31.53,45.1,31.15,44.93,30.8,43.99z M24.67,39.78
			l1.51-4.11l1.54,4.11H24.67z M57.87,23.61h-2.66l-1.96-3.53l2.26-4.22h10.61l3.2,5.61l-1.14,2.14h-4.34v1.01H82.2v-1.01
			c-2.11,0-4.24,0-5.51-2.21L64.53-0.02h-1.69L52.55,18.75c-2.2,4.04-4.21,4.42-6.6,4.86v1.01h11.92V23.61z M60.45,6.71
			c0.11-0.17,0.24-0.37,0.5-0.37c0.26,0,0.39,0.2,0.43,0.37l4.18,8.15h-9.42L60.45,6.71z M19.43,12.01l7.43,9.39l-1.02,2.21h-3.46
			v1.01h16.9v-1.01h-2.47L24.84,8.42l10.84-6.99h2.9V0.42H22.2v1.01h2.13l3.54,3.66l-14.12,9.01V3.18l2.09-1.76h2.32V0.42H0.96v1.01
			h3.57l2.22,2.25v17.65l-2.08,2.28H0.96v1.01h17.19v-1.01h-2.32l-2.09-2.08v-5.99L19.43,12.01z M84.22,41.93
			c-0.84-0.83-1.36-1.33-2.01-1.84c1.44-0.43,2.36-1.53,2.36-2.85c0-1.81-1.48-3.14-4.74-3.14c-1.14,0-1.5,0-2.23,0.04
			c-0.72,0.03-1.79,0.1-2.22,0.1v0.34h0.39c1.02,0,1.32,0.31,1.32,1.41v7.43c0,1.18-0.38,1.46-1.4,1.46h-0.32v0.34h5.01v-0.34h-0.4
			c-1,0-1.43-0.27-1.43-1.32v-2.98c0.28,0.02,0.51,0.05,0.91,0.05c0.47,0,0.74-0.03,1.2-0.05c0.42,0.28,1.03,0.8,1.8,1.56l1.19,1.17
			c1.55,1.57,2.34,2.24,5.43,2.1v-0.31c-1.36-0.09-2.43-0.74-3.48-1.78L84.22,41.93z M79.64,40.28c-0.4,0-0.66,0.02-1.09-0.04v-5.79
			c0.32-0.03,0.55-0.03,0.88-0.03c2.74,0,3.47,1.27,3.47,2.9C82.9,39.46,81.62,40.28,79.64,40.28z M153.46,43.99l-3.69-9.8h-1.55
			l0.17,0.39l-3.21,8.77c-0.58,1.53-0.76,1.73-1.91,1.75v0.34h4.09V45.1h-0.3c-0.96,0-1.42-0.17-1.42-0.66
			c0-0.25,0.23-0.77,0.35-1.11l1.02-2.77h3.65l1.2,3.22c0.06,0.17,0.19,0.44,0.19,0.72c0,0.49-0.38,0.6-1.39,0.6h-0.46v0.34h4.86
			V45.1C154.18,45.1,153.82,44.93,153.46,43.99z M147.32,39.78l1.51-4.11l1.55,4.11H147.32z M169.5,21.4L157.35-0.02h-1.7
			l-10.28,18.76c-2.19,4.04-4.21,4.42-6.6,4.86v1.01h11.91v-1.01h-2.64l-1.96-3.53l2.27-4.22h10.58l3.21,5.61L161,23.61h-4.34v1.01
			H175v-1.01C172.91,23.61,170.77,23.61,169.5,21.4z M148.97,14.85l4.28-8.15c0.13-0.17,0.26-0.37,0.51-0.37
			c0.26,0,0.39,0.2,0.44,0.37l4.17,8.15H148.97z M131.83,34.31c-0.92,0-1.99,0-2.98,0.04c-0.97,0.03-1.82,0.08-2.47,0.1v0.34h0.35
			c1.04,0,1.34,0.27,1.34,1.42v7.59c0,1.02-0.44,1.29-1.39,1.29h-0.3v0.34H132c4.47,0,6.54-3.2,6.54-5.87
			C138.54,36.67,136.47,34.31,131.83,34.31z M135.42,43.67c-1.08,1.1-2.08,1.43-4.46,1.43c-1.37,0-1.44-0.24-1.44-0.98V34.7
			c0.22-0.02,0.69-0.07,1.41-0.07c2.47,0,3.72,0.62,4.53,1.43c1.05,1.03,1.41,2.49,1.41,3.8C136.88,41.67,136.08,43.03,135.42,43.67
			z M100.01,34.51c1.19,0,1.65,0.2,1.65,0.74c0,0.25-0.1,0.59-0.31,1.1l-2.79,7.28l-3.17-7.9c-0.32-0.8,0.05-1.17,1.67-1.21v-0.34
			h-4.83v0.34c1.06,0,1.29,0.25,1.73,1.37l3.8,9.56h0.91l3.61-9.41c0.43-1.09,0.9-1.51,1.83-1.51v-0.34h-4.1V34.51z M119.18,2.69
			c0.19,0,0.36,0.06,0.36,0.25v18.34l-1.81,2.33h-3.41v1.01h17.77v-1.01h-3.65l-2.21-2.52V3.76l2.59-2.33h3.27V0.42h-13.54
			l-7.44,15.57l-8.25-15.57H88.87v1.01h4.21c1.15,0,1.65,1.39,1.65,2.14v16.25l-3.03,3.79h-2.84v1.01h13.11v-1.01h-2.39l-3.47-3.79
			V3.26c0-0.19,0.13-0.45,0.44-0.45c0.2,0,0.37,0.19,0.45,0.32l11.08,20.85h0.5l10.09-21.04C118.74,2.75,118.92,2.69,119.18,2.69z
			 M117.7,44.79h-2.71c-0.65,0-0.95-0.14-0.95-0.96v-3.77h2.98c0.72,0,1.06,0.14,1.21,1.4h0.33v-3.35h-0.33
			c-0.09,1.02-0.39,1.32-1.02,1.32h-3.16V35.1h3.72c0.64,0,1.07,0.31,1.32,1.8h0.31l-0.14-2.44h-8.48v0.34h0.4
			c1.18,0,1.4,0.42,1.4,1.41v7.46c0,1.05-0.23,1.43-1.65,1.43h-0.49v0.34h9.36l0.28-2.64h-0.32
			C119.32,44.33,118.96,44.79,117.7,44.79z"/>
	</g>
</g>
</svg>
