<svg xmlns="http://www.w3.org/2000/svg" width="19" height="23" viewBox="0 0 19 21.7" fill="#a96828" xmlns:v="https://vecta.io/nano"><path vector-effect="non-scaling-stroke" d="M9.4 13h0 .1.1c1.5 0 2.8-.5 3.7-1.5 2-2.2 1.7-5.9 1.7-6.2-.1-2.7-1.5-3.9-2.6-4.5-.8-.5-1.8-.7-2.8-.8h0 0c-.7 0-1.9.1-3 .7S4.2 2.6 4 5.3c0 .4-.4 4.1 1.7 6.2.9 1 2.2 1.5 3.7 1.5zM5.5 5.4c.2-3.6 2.9-4 4-4h0c1.4 0 3.8.6 4 4 0 0 .4 3.4-1.3 5.2a3.69 3.69 0 0 1-2.7 1.1h0c-1.2 0-2.1-.4-2.7-1.1-1.7-1.8-1.3-5.2-1.3-5.2h0z"/><path vector-effect="non-scaling-stroke" d="M20.7 29v-.1c0-.9-.1-3-2.1-3.7-2.1-.5-3.8-1.7-3.8-1.7-.3-.2-.7-.1-.9.2s-.1.7.2.9c.1.1 1.9 1.3 4.2 1.9 1.1.4 1.2 1.5 1.2 2.6v.1c0 .4 0 1-.1 1.4-.7.4-3.7 1.9-8.2 1.9-4.4 0-7.4-1.5-8.2-1.9-.1-.4-.1-1-.1-1.4v-.1c0-1 .2-2.2 1.2-2.6 2.3-.6 4.1-1.8 4.2-1.9.3-.2.4-.6.2-.9s-.6-.3-.9-.2c0 0-1.7 1.2-3.8 1.7-2 .7-2.1 2.8-2.1 3.7v.1c0 .2 0 1.5.2 2.1 0 .1.1.2.2.3s3.5 2.2 9 2.2 8.9-2.1 9-2.2.2-.2.2-.3c.4-.6.4-1.8.4-2.1z" transform="translate(-1.669 -11.811)"/></svg>